<svg height="512" viewBox="0 0 60 60" width="512" xmlns="http://www.w3.org/2000/svg"><g id="Page-1" fill="none" fill-rule="evenodd"><g id="028---No-Bugs-Home" fill="rgb(255,0,0, 0.7)" fill-rule="nonzero" transform="translate(-1)"><path id="Shape" d="m32.992.758c-1.1363167-1.00906971-2.8476833-1.00906971-3.984 0l-10.008 8.895v-1.653c0-1.1045695-.8954305-2-2-2h-4c-1.1045695 0-2 .8954305-2 2v8.764l-8.992 7.993c-.91117184.8053673-1.24601593 2.0811265-.84780934 3.2301618.39820659 1.1490354 1.45067866 1.94401 2.66480934 2.0128382h.179c.73344836.0010301 1.44142707-.2689135 1.988-.758l2.008-1.784v29.542c0 1.6568542 1.34314575 3 3 3h40c1.6568542 0 3-1.3431458 3-3v-29.541l2.007 1.784c1.254896 1.0531269 3.1136908.9434246 4.236-.25 1.1003203-1.2385357.9883966-3.1345232-.25-4.235zm-19.992 7.242h4v3.431l-4 3.556zm39 49c0 .5522847-.4477153 1-1 1h-40c-.5522847 0-1-.4477153-1-1v-31.32l21-18.666 21 18.667zm6.748-29.336c-.1762441.198587-.4242299.3189301-.6892891.3344997-.2650592.0155697-.5254289-.0749125-.7237109-.2514997l-25.671-22.819c-.3787722-.33635657-.9492278-.33635657-1.328 0l-25.673 22.82c-.19956853.173268-.45795792.2634538-.722.252-.4029115-.025704-.75084353-.2911671-.8820515-.6729823s-.01995058-.8050753.2820515-1.0730177l9.35-8.311.029-.026 17.616-15.665c.3787722-.33635657.9492278-.33635657 1.328 0l27 24c.1984293.1760749.3187635.4237805.3345175.6885981s-.0743633.525043-.2505175.7234019z"/><path id="Shape" d="m40.7 21.86c-8.2991226-5.3465593-19.3565705-3.0048601-24.7758919 5.2469329-5.4193215 8.251793-3.1749336 19.3294026 5.0288919 24.8210671.015.011.023.027.038.037.0324623.0174567.0658443.0331463.1.047 5.3762522 3.5631166 12.2488637 3.9745324 18.0117961 1.0782419 5.7629323-2.8962906 9.5337139-8.6567816 9.8824952-15.0971418.3487812-6.4403602-2.7778465-12.5743843-8.1942913-16.0761001-.013-.009-.02-.024-.033-.033s-.041-.013-.058-.024zm-25.7 15.14c-.0071609-5.677771 2.9989251-10.9329704 7.8967466-13.804987 4.8978215-2.8720167 10.9517762-2.9295034 15.9032534-.151013l-3.239 4.929c-.8856848-2.0075214-2.9796719-3.2000765-5.1581351-2.9376305-2.1784632.2624461-3.9293059 1.9181994-4.3128649 4.0786305-1.5894415.3778045-2.7893824 1.6842396-3.031 3.3-.551-.364-1.059-.855-1.059-1.414 0-.5522847-.4477153-1-1-1s-1 .4477153-1 1c0 2.016 1.92 3.179 3 3.673v1.327h-3c-.5522847 0-1 .4477153-1 1s.4477153 1 1 1h3v1.327c-1.08.494-3 1.657-3 3.673 0 .5522847.4477153 1 1 1s1-.4477153 1-1c.102489-.6033471.4844986-1.1225834 1.03-1.4.0966013 1.2877727.5053802 2.5326436 1.191 3.627l-2.93 4.46c-3.960224-3.0169694-6.2865755-7.7085004-6.291-12.687zm22-4v8c.0028454 2.45084-1.48689 4.6564399-3.7614966 5.5690131-2.2746065.9125733-4.875657.3481989-6.5675034-1.4250131l9.169-13.953c.705298.3264059 1.1576481 1.0318382 1.16 1.809zm-12 8v-8c0-1.1045695.8954305-2 2-2h6.572l-8.1 12.328c-.3114739-.7366144-.4719752-1.5282395-.472-2.328zm3.171-12c.4233058-1.1994774 1.5570197-2.0016218 2.829-2.0016218s2.4056942.8021444 2.829 2.0016218zm18.829 8c.0111374 5.7304594-3.0490675 11.0275528-8.0189165 13.8804267-4.969849 2.852874-11.0873013 2.8240894-16.0300835-.0754267l2.6-3.962c2.2439572 2.1044975 5.497808 2.731689 8.3632306 1.612043 2.8654225-1.1196461 4.8320627-3.786712 5.0547694-6.855043.5456743.2774255.9279948.7965803 1.031 1.4 0 .5522847.4477153 1 1 1s1-.4477153 1-1c0-2.017-1.92-3.179-3-3.673v-1.327h3c.5522847 0 1-.4477153 1-1s-.4477153-1-1-1h-3v-1.327c1.08-.494 3-1.656 3-3.673 0-.5522847-.4477153-1-1-1s-1 .4477153-1 1c-.1076611.6140739-.5007588 1.1404313-1.059 1.418-.1795663-1.2250274-.9187405-2.2968299-2-2.9l3.539-5.385c4.096601 3.0074714 6.5174682 7.7849711 6.52 12.867z"/></g></g></svg>