<svg height="512" viewBox="0 0 512 512" width="512" xmlns="http://www.w3.org/2000/svg"><g id="outline" fill="none" fill-rule="evenodd"><g id="028---No-Bugs-Home" fill="rgb(255,0,0, 0.7)" fill-rule="nonzero" transform="translate(-1)"><path d="m294.628 280h16v16h-16z"/><path d="m374.628 376c-17.645 0-32 17.944-32 40s14.355 40 32 40 32-17.944 32-40-14.356-40-32-40zm0 64c-9.157 0-16-12.671-16-24s6.843-24 16-24 16 12.671 16 24-6.843 24-16 24z"/><path d="m230.628 376c-17.645 0-32 17.944-32 40s14.355 40 32 40 32-17.944 32-40-14.356-40-32-40zm0 64c-9.157 0-16-12.671-16-24s6.843-24 16-24 16 12.671 16 24-6.843 24-16 24z"/><path d="m432.97 456.97-3.612-3.612a78.24 78.24 0 0 0 9.27-37.358c0-39.7-28.71-72-64-72a57.132 57.132 0 0 0 -12.247 1.338l-35.8-322.221a8 8 0 0 0 -7.953-7.117h-32a8 8 0 0 0 -7.947 7.086l-34.04 296c-.007.058-.006.115-.011.173h-.008l-2.422 25.941a57.21 57.21 0 0 0 -11.576-1.2c-35.29 0-64 32.3-64 72s28.71 72 64 72 64-32.3 64-72a78.724 78.724 0 0 0 -7.669-34.144l6.735-53.856h17.875l6.731 53.858a78.732 78.732 0 0 0 -7.668 34.142c0 39.7 28.71 72 64 72a57.232 57.232 0 0 0 18.443-3.047l5.958 5.959a24 24 0 1 0 33.941-33.942zm-202.342 15.03c-26.468 0-48-25.122-48-56s21.532-56 48-56 48 25.122 48 56-21.528 56-48 56zm42.642-109.632a64.169 64.169 0 0 0 -15.518-11.562l2.125-22.806h17.688zm-11.709-50.368 32.2-280h17.707l35.454 319.1a64.333 64.333 0 0 0 -14.937 11.267l-5.419-43.361a8 8 0 0 0 -7.938-7.006zm160.1 167.6a8.008 8.008 0 0 1 -11.313 0l-9.656-9.656a8 8 0 0 0 -8.924-1.645 41.716 41.716 0 0 1 -17.135 3.7c-26.468 0-48-25.122-48-56s21.532-56 48-56 48 25.122 48 56a61.577 61.577 0 0 1 -10.007 34.183 8 8 0 0 0 1.011 10.076l8.024 8.025a8 8 0 0 1 0 11.313z"/><path d="m145.115 320h54.885a24 24 0 0 0 0-48h-40a8 8 0 0 1 0-16h40a24 24 0 0 0 0-48h-40a8 8 0 0 1 0-16h40a24 24 0 0 0 0-48h-40a8 8 0 0 1 0-16h40a24 24 0 0 0 0-48h-40a8 8 0 0 1 0-16h40a24 24 0 0 0 0-48h-88a40.045 40.045 0 0 0 -40 40v432a8 8 0 0 0 8 8 53.868 53.868 0 0 0 53.812-56.314l-4.679-102.959a16 16 0 0 1 15.982-16.727zm-23.135-6.108a31.724 31.724 0 0 0 -8.832 23.561l4.68 102.96a37.91 37.91 0 0 1 -29.828 38.751v-423.164a24.028 24.028 0 0 1 24-24h88a8 8 0 0 1 0 16h-40a24 24 0 0 0 0 48h40a8 8 0 0 1 0 16h-40a24 24 0 0 0 0 48h40a8 8 0 0 1 0 16h-40a24 24 0 0 0 0 48h40a8 8 0 0 1 0 16h-40a24 24 0 0 0 0 48h40a8 8 0 0 1 0 16h-54.885a31.719 31.719 0 0 0 -23.135 9.892z"/></g></g></svg>