<?xml version="1.0" encoding="iso-8859-1"?>
<!-- Generator: Adobe Illustrator 19.0.0, SVG Export Plug-In . SVG Version: 6.00 Build 0)  -->
<svg version="1.1" id="Capa_1" xmlns="http://www.w3.org/2000/svg" xmlns:xlink="http://www.w3.org/1999/xlink" x="0px" y="0px"
	 viewBox="0 0 480 480" style="enable-background:new 0 0 480 480;" xml:space="preserve">
<g id="outline" fill="none" fill-rule="evenodd">
	<g id="028---No-Bugs-Home" fill="rgb(255,0,0, 0.7)" fill-rule="nonzero" transform="translate(-1)">
		<path d="M448,40h-56v-8c0-4.418-3.582-8-8-8h-24V8c0-4.418-3.582-8-8-8H64c-4.418,0-8,3.582-8,8v16H32c-4.418,0-8,3.582-8,8v64
			c0,4.418,3.582,8,8,8h24v16c0,4.418,3.582,8,8,8h288c4.418,0,8-3.582,8-8v-16h24c4.418,0,8-3.582,8-8v-8h16v88H192
			c-4.418,0-8,3.582-8,8v88h-8c-4.418,0-8,3.582-8,8v192c0,4.418,3.582,8,8,8h64c4.418,0,8-3.582,8-8V280c0-4.418-3.582-8-8-8h-8
			v-48h216c4.418,0,8-3.582,8-8V48C456,43.582,452.418,40,448,40z M56,88H40V40h16V88z M344,112H72V16h272V112z M376,88h-16V40h16
			V88z M232,464h-48V288h48V464z M440,208H224c-4.418,0-8,3.582-8,8v56h-16v-80h216c4.418,0,8-3.582,8-8V80c0-4.418-3.582-8-8-8h-24
			V56h48V208z"/>
	</g>
</g>
<g id="outline" fill="none" fill-rule="evenodd"><g id="028---No-Bugs-Home" fill="rgb(255,0,0, 0.7)" fill-rule="nonzero" transform="translate(-1)">
		<path d="M112,80H96c-4.418,0-8,3.582-8,8s3.582,8,8,8h16c4.418,0,8-3.582,8-8S116.418,80,112,80z"/>
	</g>
</g>
<g>
	<g>
		<path d="M320,80H144c-4.418,0-8,3.582-8,8s3.582,8,8,8h176c4.418,0,8-3.582,8-8S324.418,80,320,80z"/>
	</g>
</g>
<g id="outline" fill="none" fill-rule="evenodd"><g id="028---No-Bugs-Home" fill="rgb(255,0,0, 0.7)" fill-rule="nonzero" transform="translate(-1)">
		<path d="M112,176c-4.418,0-8-3.582-8-8c0-13.255-10.745-24-24-24s-24,10.745-24,24v32c0,13.255,10.745,24,24,24
			c4.418,0,8,3.582,8,8c0,13.255,10.745,24,24,24s24-10.745,24-24v-32C136,186.745,125.255,176,112,176z M120,232
			c0,4.418-3.582,8-8,8s-8-3.582-8-8c0-13.255-10.745-24-24-24c-4.418,0-8-3.582-8-8v-32c0-4.418,3.582-8,8-8s8,3.582,8,8
			c0,13.255,10.745,24,24,24c4.418,0,8,3.582,8,8V232z"/>
	</g>
</g>
<g id="outline" fill="none" fill-rule="evenodd"><g id="028---No-Bugs-Home" fill="rgb(255,0,0, 0.7)" fill-rule="nonzero" transform="translate(-1)">
		<path d="M112,272c-13.255,0-24,10.745-24,24v32c0,13.255,10.745,24,24,24s24-10.745,24-24v-32C136,282.745,125.255,272,112,272z
			 M120,328c0,4.418-3.582,8-8,8s-8-3.582-8-8v-32c0-4.418,3.582-8,8-8s8,3.582,8,8V328z"/>
	</g>
</g>
<g>
</g>
<g>
</g>
<g>
</g>
<g>
</g>
<g>
</g>
<g>
</g>
<g>
</g>
<g>
</g>
<g>
</g>
<g>
</g>
<g>
</g>
<g>
</g>
<g>
</g>
<g>
</g>
<g>
</g>
</svg>
